<svg width="46" height="46" viewBox="0 0 46 46" fill="none" xmlns="http://www.w3.org/2000/svg">
<path d="M38.2762 14.0896C38.8265 13.201 39.214 12.2801 39.3923 11.3774C40.1068 7.77524 37.7765 3.63686 33.6647 2.07438C32.9053 1.78518 32.4827 2.43232 32.9263 3.09492C34.0072 4.70366 34.8888 7.68818 33.2842 9.73635C33.1382 9.92448 32.9796 10.0943 32.8181 10.2572L30.8389 8.86747H15.1611L13.1818 10.2573C13.0203 10.0944 12.8617 9.92457 12.7157 9.73644C11.1112 7.68827 11.9927 4.70375 13.0736 3.09501C13.5173 2.43241 13.0946 1.78527 12.3352 2.07447C8.22349 3.63686 5.89321 7.77533 6.60774 11.3775C6.78599 12.2802 7.17348 13.2011 7.72378 14.0897L0 19.5126C0 19.5126 5.74856 25.2612 10.7251 21.287C10.7251 24.1255 11.9675 27.3908 14.7358 29.3056L16.2252 35.2423C14.3792 35.7926 13.033 37.501 13.033 39.5253C13.033 41.9946 15.0335 43.9965 17.5027 43.9965H28.4974C30.9666 43.9965 32.9685 41.9947 32.9685 39.5253C32.9685 37.501 31.6209 35.7926 29.7748 35.2423L31.2656 29.3056C34.0325 27.3907 35.2749 24.1255 35.2749 21.287C40.2514 25.2612 46 19.5126 46 19.5126L38.2762 14.0896Z" fill="black"/>
</svg>
