<svg width="171" height="70" viewBox="0 0 171 70" fill="none" xmlns="http://www.w3.org/2000/svg">
<path d="M32.7842 0.0664043C33.0284 0.0642627 33.2725 0.0642627 33.5252 0.0621211C33.9257 0.0621211 33.9257 0.0621211 34.3326 0.0621211C34.6067 0.0599795 34.8787 0.0599795 35.1614 0.0599795C35.7439 0.0578379 36.3243 0.0578379 36.9068 0.0578379C37.6435 0.0578379 38.3824 0.0556963 39.1213 0.0514131C39.8301 0.0492715 40.5411 0.0492715 41.2522 0.0471299C41.5134 0.0471299 41.7747 0.0449883 42.0446 0.0428467C44.6552 0.0492715 47.3258 0.188476 49.3924 1.96387C51.1207 3.78423 51.776 5.95582 51.791 8.41224C51.7932 8.57286 51.7932 8.73349 51.7953 8.89839C51.7975 9.23676 51.7975 9.57514 51.7996 9.91351C51.8017 10.4254 51.8082 10.9393 51.8146 11.4512C51.8317 13.8862 51.639 16.2227 49.8507 18.0687C49.0883 18.7648 48.4437 19.2359 47.465 19.5871C48.0646 21.2726 48.7585 22.8659 49.5702 24.4593C50.3433 25.9734 51.065 27.5068 51.7803 29.0466C51.9388 29.3893 52.1037 29.7319 52.2665 30.0724C52.8426 31.2932 52.8426 31.2932 52.6048 32.0085C51.5298 32.2205 50.4954 32.2676 49.4053 32.2762C49.1568 32.2826 49.1568 32.2826 48.9041 32.289C47.7884 32.2954 46.9446 32.1669 45.9658 31.5801C45.621 31.0854 45.3983 30.6892 45.1627 30.1474C45.0942 29.9996 45.0257 29.854 44.955 29.7041C44.7151 29.188 44.4839 28.6697 44.2526 28.1536C44.0534 27.721 43.8564 27.2905 43.6572 26.8579C43.3509 26.1919 43.0447 25.5237 42.7406 24.8555C42.1966 23.6519 41.6291 22.4655 41.0187 21.294C40.826 20.8721 40.826 20.8721 40.826 20.4438C39.0227 20.5487 39.0227 20.5487 37.1852 20.6579C37.181 20.9856 37.1767 21.3133 37.1724 21.6538C37.1553 22.8681 37.136 24.0845 37.1167 25.2988C37.1081 25.8256 37.1017 26.3525 37.0953 26.8793C37.0846 27.6353 37.0717 28.3913 37.0589 29.1473C37.0546 29.5028 37.0546 29.5028 37.0525 29.8647C37.0482 30.0832 37.0439 30.3016 37.0396 30.5286C37.0353 30.7214 37.0332 30.9141 37.031 31.1133C36.9711 31.5801 36.9711 31.5801 36.5428 32.0085C35.5705 32.3297 34.5553 32.2783 33.5445 32.289C33.3518 32.2954 33.1569 32.3019 32.9577 32.3083C32.7714 32.3083 32.5851 32.3104 32.3923 32.3126C32.2231 32.3169 32.0539 32.319 31.8783 32.3233C31.2059 32.1798 30.9746 31.895 30.5462 31.366C30.4392 30.7856 30.4392 30.7856 30.4392 30.111C30.437 29.8561 30.4349 29.5992 30.4327 29.3357C30.4349 29.0552 30.437 28.7746 30.4392 28.4855C30.437 28.1878 30.437 27.888 30.4349 27.5903C30.4327 26.7787 30.4349 25.9691 30.437 25.1575C30.4413 24.3094 30.4392 23.4635 30.4392 22.6154C30.437 21.1912 30.4413 19.767 30.4456 18.3429C30.452 16.696 30.452 15.0491 30.4499 13.4022C30.4477 11.8174 30.4477 10.2348 30.452 8.64996C30.452 7.9775 30.452 7.30289 30.452 6.62829C30.4499 5.83375 30.452 5.04136 30.4563 4.24682C30.4584 3.81636 30.4584 3.38589 30.4563 2.95543C30.4584 2.69844 30.4606 2.44359 30.4627 2.18017C30.4627 1.95744 30.4627 1.73472 30.4649 1.50556C30.557 0.87379 30.6854 0.689612 31.1887 0.312689C31.7477 0.0321387 32.1589 0.068546 32.7842 0.0664043Z" fill="#004D3C"/>
<path d="M156.355 0.0513986C156.513 0.049257 156.672 0.0471154 156.837 0.0471154C157.173 0.0428322 157.509 0.0406906 157.847 0.038549C158.361 0.0364074 158.875 0.0256993 159.389 0.0171329C159.717 0.0149913 160.043 0.0128497 160.37 0.010708C160.524 0.00642483 160.677 0.00428322 160.835 0C161.522 0.00214161 161.953 0.0471154 162.525 0.443313C163.309 1.55481 163.655 2.80123 163.972 4.10761C164.015 4.27037 164.056 4.43313 164.097 4.60018C164.187 4.95783 164.277 5.31548 164.367 5.67527C164.619 6.69253 164.876 7.70765 165.133 8.72278C165.219 9.06115 165.219 9.06115 165.307 9.40595C165.81 11.3848 166.33 13.3594 166.853 15.3339C166.896 15.4945 166.939 15.653 166.981 15.8158C167.365 17.2592 167.748 18.7005 168.131 20.1418C168.671 22.1721 169.209 24.2002 169.742 26.2304C169.81 26.4917 169.879 26.753 169.95 27.0228C170.14 27.7488 170.327 28.4727 170.513 29.1987C170.569 29.4129 170.626 29.6249 170.682 29.8433C170.731 30.0382 170.781 30.231 170.832 30.4301C170.875 30.5972 170.918 30.7642 170.963 30.9377C171.027 31.3703 171.027 31.3703 170.813 32.0128C169.81 32.4004 168.643 32.2655 167.587 32.2676C167.371 32.2698 167.155 32.2719 166.934 32.2741C166.624 32.2762 166.624 32.2762 166.307 32.2762C166.118 32.2762 165.93 32.2783 165.735 32.2783C165.245 32.2269 165.245 32.2269 164.602 31.7986C164.394 31.2225 164.394 31.2225 164.219 30.4987C164.154 30.2395 164.09 29.9825 164.022 29.7148C163.957 29.445 163.893 29.173 163.825 28.8946C163.694 28.3571 163.561 27.8217 163.428 27.2863C163.371 27.0485 163.313 26.8108 163.255 26.5645C163.156 26.0334 163.156 26.0334 162.889 25.8021C162.593 25.7828 162.296 25.7764 162 25.7764C161.715 25.7764 161.715 25.7764 161.428 25.7764C161.12 25.7786 161.12 25.7786 160.807 25.7807C160.492 25.7807 160.492 25.7807 160.173 25.7807C159.503 25.7828 158.833 25.785 158.164 25.7893C157.71 25.7893 157.256 25.7914 156.804 25.7914C155.691 25.7936 154.579 25.7978 153.466 25.8021C153.408 26.0505 153.35 26.2968 153.29 26.5538C153.213 26.8836 153.136 27.2134 153.059 27.5432C153.022 27.706 152.984 27.8688 152.945 28.0358C152.245 31.0255 152.245 31.0255 151.752 32.0128C151.082 32.2526 150.44 32.2505 149.735 32.2484C149.514 32.2462 149.296 32.2462 149.069 32.2462C148.842 32.2441 148.613 32.2419 148.379 32.2398C148.148 32.2398 147.917 32.2377 147.679 32.2377C147.109 32.2355 146.54 32.2312 145.97 32.2269C145.97 32.0856 145.97 31.9443 145.97 31.7986C145.829 31.7986 145.687 31.7986 145.542 31.7986C145.998 29.3186 146.613 26.8986 147.309 24.4765C147.981 22.1357 148.613 19.7885 149.195 17.422C149.872 14.6765 150.583 11.9416 151.32 9.21106C151.585 8.22592 151.845 7.24078 152.095 6.2535C152.245 5.65813 152.399 5.06277 152.553 4.4674C152.624 4.18471 152.697 3.89987 152.768 3.61504C152.864 3.22098 152.965 2.82907 153.067 2.43715C153.151 2.10092 153.151 2.10092 153.239 1.75826C153.84 0.205595 154.853 0.0663899 156.355 0.0513986Z" fill="#004D3C"/>
<path d="M127.87 0.0443779C128.301 0.0465195 128.729 0.0443779 129.159 0.0422363C131.834 0.0465195 134.672 0.112909 136.766 1.98896C138.679 4.05561 139.193 6.31929 139.169 9.06912C139.171 9.37323 139.171 9.37323 139.173 9.68376C139.173 9.87865 139.173 10.0714 139.171 10.2706C139.171 10.4462 139.171 10.6218 139.171 10.8017C139.116 11.2364 139.116 11.2364 138.687 11.6648C138.178 11.7204 138.178 11.7204 137.544 11.7226C137.203 11.7226 137.203 11.7226 136.854 11.7226C136.614 11.7226 136.377 11.7204 136.13 11.7183C135.775 11.7204 135.775 11.7204 135.411 11.7226C135.182 11.7226 134.955 11.7226 134.719 11.7226C134.509 11.7204 134.301 11.7204 134.085 11.7204C133.547 11.6648 133.547 11.6648 132.905 11.2364C132.811 10.5918 132.811 10.5918 132.785 9.80369C132.729 7.96191 132.729 7.96191 131.954 6.33857C130.933 5.60186 129.523 5.84386 128.326 5.84172C128.084 5.83957 127.84 5.83743 127.59 5.83529C127.236 5.83315 127.236 5.83315 126.876 5.83315C126.662 5.83315 126.448 5.83101 126.225 5.83101C125.566 5.88669 125.131 5.98735 124.553 6.31073C123.855 7.20378 123.816 8.02402 123.825 9.11838C123.82 9.37537 123.82 9.37537 123.818 9.63879C123.816 10.2042 123.816 10.7717 123.818 11.3371C123.816 11.7311 123.816 12.1252 123.814 12.5193C123.812 13.3459 123.812 14.1726 123.814 14.9971C123.816 16.0551 123.812 17.113 123.807 18.171C123.803 18.9869 123.803 19.8007 123.803 20.6145C123.803 21.0043 123.803 21.3941 123.799 21.7839C123.797 22.33 123.799 22.8761 123.803 23.42C123.801 23.5807 123.799 23.7413 123.797 23.9083C123.807 24.6815 123.891 25.1248 124.304 25.7865C125.356 26.7888 126.913 26.489 128.273 26.4954C128.538 26.4997 128.802 26.504 129.074 26.5083C129.455 26.5104 129.455 26.5104 129.845 26.5125C130.194 26.5147 130.194 26.5147 130.549 26.519C131.277 26.4312 131.676 26.232 132.263 25.7994C132.851 24.7992 132.772 23.6535 132.794 22.5249C132.836 21.4005 132.836 21.4005 133.158 20.9379C133.693 20.5546 134.066 20.576 134.719 20.5739C135.062 20.5739 135.062 20.5738 135.411 20.5717C135.648 20.5738 135.886 20.576 136.13 20.5803C136.37 20.576 136.608 20.5738 136.854 20.5717C137.081 20.5717 137.308 20.5739 137.544 20.5739C137.754 20.576 137.961 20.576 138.178 20.576C138.345 20.6038 138.514 20.6317 138.687 20.6595C139.315 21.6018 139.186 22.4692 139.182 23.5785C139.186 23.7841 139.188 23.9897 139.193 24.2017C139.195 26.4826 138.55 28.5064 136.946 30.1768C136.332 30.7251 136.332 30.7251 135.903 30.7251C135.903 30.8664 135.903 31.0078 135.903 31.1534C134.633 31.6781 133.473 32.0422 132.102 32.1835C130.873 32.3399 130.288 32.6847 129.493 33.6248C129.38 33.779 129.38 33.779 129.264 33.9375C129.894 34.3937 129.894 34.3937 130.643 34.6335C131.524 35.0661 131.802 35.443 132.263 36.2933C132.517 37.0578 132.52 37.696 132.53 38.5013C132.537 38.7797 132.541 39.0559 132.547 39.3429C132.472 40.206 132.299 40.7071 131.834 41.4331C131.459 41.7394 131.459 41.7394 131.072 41.9278C130.682 42.1184 130.294 42.3112 129.907 42.5039C129.123 42.5553 128.337 42.5446 127.551 42.5446C127.333 42.5468 127.112 42.5489 126.887 42.5532C126.677 42.5532 126.467 42.5532 126.253 42.5532C126.06 42.5553 125.868 42.5553 125.669 42.5553C125.195 42.5039 125.195 42.5039 124.767 42.0756C124.718 41.5723 124.718 41.5723 124.726 40.992C124.728 40.7992 124.728 40.6065 124.73 40.4094C124.767 39.934 124.767 39.934 124.981 39.7198C125.799 39.6684 126.617 39.6342 127.437 39.6085C127.611 39.6021 127.782 39.5935 127.958 39.5871C128.196 39.5785 128.196 39.5785 128.438 39.5699C128.887 39.5378 128.887 39.5378 129.264 39.0774C129.335 38.542 129.335 38.542 129.264 38.0065C128.6 37.3427 127.72 37.4198 126.821 37.3384C125.958 37.2441 125.394 37.1221 124.767 36.5074C124.566 36.1198 124.566 36.1198 124.553 35.6508C124.992 34.4451 125.838 33.5777 126.694 32.6525C125.709 32.387 124.76 32.1942 123.75 32.0636C121.886 31.7659 120.171 30.92 118.77 29.6543C118.447 29.1703 118.447 29.1703 118.194 28.6499C118.111 28.4828 118.025 28.3136 117.937 28.1402C117.38 26.6732 117.207 25.234 117.211 23.6749C117.211 23.4929 117.209 23.313 117.209 23.1266C117.207 22.5377 117.207 21.9466 117.207 21.3577C117.205 20.9422 117.205 20.5289 117.205 20.1155C117.203 19.2482 117.203 18.383 117.203 17.5178C117.205 16.4127 117.201 15.3098 117.196 14.2047C117.192 13.3502 117.192 12.4957 117.194 11.6412C117.194 11.2343 117.192 10.8274 117.19 10.4205C117.177 7.45221 117.222 4.85443 119.199 2.45583C121.533 0.121476 124.745 0.0251034 127.87 0.0443779Z" fill="#004D3C"/>
<path d="M97.8217 0.0641821C98.0894 0.0620405 98.3571 0.0598989 98.6334 0.0556157C101.315 0.0513325 103.88 0.229086 106.133 1.81816C106.742 2.47992 107.193 3.17808 107.632 3.95977C107.761 4.15894 107.889 4.35597 108.02 4.56156C108.585 6.07568 108.877 7.91104 108.703 9.52796C108.448 9.9884 108.448 9.9884 108.061 10.3846C107.549 10.4917 107.549 10.4917 106.951 10.4895C106.626 10.4895 106.626 10.4895 106.296 10.4917C105.958 10.4853 105.958 10.4853 105.613 10.4767C105.388 10.4788 105.163 10.481 104.93 10.4831C103.032 10.466 103.032 10.466 102.278 9.74212C102.131 9.15532 102.131 9.15532 102.064 8.48285C101.925 7.4613 101.812 6.7974 100.993 6.10138C100.034 5.78871 99.0489 5.83796 98.0487 5.83368C97.8624 5.8294 97.6761 5.82511 97.4855 5.82083C96.2219 5.81226 95.2882 5.98788 94.1403 6.5297C93.8019 7.01156 93.8019 7.01156 93.712 7.60051C93.6456 7.89819 93.6456 7.89819 93.5792 8.2023C93.3629 9.86419 93.3629 9.86419 93.712 11.4554C95.1083 12.811 96.8773 12.8753 98.719 13.128C105.067 14.0575 105.067 14.0575 106.776 15.7386C107.275 16.4197 107.675 17.1285 108.061 17.8802C108.189 18.118 108.318 18.3557 108.448 18.602C109.05 19.9319 108.973 21.2618 108.982 22.701C108.984 22.9923 108.988 23.2814 108.994 23.5705C109.044 25.8534 108.898 28.0807 107.285 29.8454C105.2 31.9892 102.636 32.2033 99.7877 32.2676C91.8937 32.3746 91.8937 32.3746 89.1803 30.1324C87.6234 28.524 87.0601 26.2668 87.0066 24.0759C86.998 23.8575 86.9916 23.639 86.983 23.4142C87.0987 22.6368 87.3257 22.4354 87.9296 21.9493C88.4693 21.8379 88.4693 21.8379 89.069 21.8358C89.3945 21.8336 89.3945 21.8336 89.7243 21.8315C90.0627 21.8358 90.0627 21.8358 90.4075 21.8422C90.6323 21.8379 90.8572 21.8358 91.0906 21.8315C91.3069 21.8336 91.5232 21.8336 91.746 21.8358C92.0415 21.8358 92.0415 21.8358 92.3435 21.8379C92.8553 21.9493 92.8553 21.9493 93.2387 22.3433C93.6906 23.1507 93.682 24.0395 93.7719 24.9475C93.8704 25.6007 93.8704 25.6007 94.3159 25.9841C95.5238 26.6244 96.8494 26.4938 98.1836 26.5002C98.4128 26.5045 98.6441 26.5088 98.8818 26.5131C100.576 26.5366 100.576 26.5366 102.064 25.8042C102.777 24.607 102.67 23.0736 102.493 21.7351C101.966 20.6515 101.248 20.2039 100.137 19.8077C99.6892 19.7156 99.2395 19.6385 98.7876 19.5678C98.5263 19.5271 98.265 19.4864 97.9973 19.4436C97.7232 19.4008 97.4491 19.3558 97.1664 19.313C90.5467 18.2208 90.5467 18.2208 88.4565 15.7793C87.1115 13.8733 87.0152 11.661 86.9937 9.40588C86.9895 9.20243 86.9873 8.99684 86.9852 8.78482C87.0002 6.45475 87.5356 4.1311 89.1075 2.34071C91.4504 0.0834567 94.7699 0.0663237 97.8217 0.0641821Z" fill="#004D3C"/>
<path d="M10.7282 0.0154473C11.1587 0.0175889 11.587 0.0154473 12.0174 0.0133057C14.6623 0.0175889 17.4657 0.0861205 19.5709 1.89792C21.539 4.0224 21.9973 6.59448 22.0273 9.38714C22.0295 9.60986 22.0295 9.60986 22.0338 9.83902C22.0273 10.6271 21.9952 10.9634 21.5455 11.6358C21.0358 11.7151 21.0358 11.7151 20.4018 11.7129C20.1748 11.7129 19.9457 11.7129 19.7122 11.7129C19.4724 11.7108 19.2347 11.7065 18.9884 11.7022C18.7507 11.7044 18.5129 11.7044 18.2688 11.7044C16.4913 11.6937 16.4913 11.6937 15.7631 11.2075C15.4333 10.2159 15.4868 9.19868 15.4569 8.15785C15.3177 7.24124 15.0778 6.77009 14.4781 6.06764C13.4095 5.68215 12.1995 5.80636 11.0773 5.79994C10.8481 5.79566 10.6168 5.79137 10.3791 5.78709C8.6958 5.77638 8.6958 5.77638 7.19667 6.49596C6.46852 7.58818 6.52635 8.7211 6.52635 10.0039C6.52635 10.156 6.52635 10.3102 6.52421 10.4665C6.52421 10.9676 6.52421 11.4688 6.52635 11.9699C6.52635 12.3211 6.52421 12.6724 6.52421 13.0215C6.52421 13.7539 6.52421 14.4885 6.52635 15.2209C6.52635 16.1589 6.52635 17.0969 6.52635 18.0328C6.52421 18.7567 6.52421 19.4806 6.52635 20.2023C6.52635 20.5492 6.52635 20.894 6.52421 21.241C6.52421 21.7228 6.52421 22.2068 6.52635 22.6908C6.52635 22.9671 6.52635 23.2412 6.52635 23.5239C6.55205 24.2285 6.59916 24.871 6.76835 25.5563C8.06831 26.6828 9.53745 26.535 11.1844 26.5072C11.4456 26.5093 11.7048 26.5093 11.9725 26.5115C13.6515 26.5179 13.6515 26.5179 15.1206 25.7705C15.504 25.0016 15.414 24.0593 15.4462 23.207C15.489 22.3396 15.5661 21.6179 15.9773 20.8448C16.8339 20.4164 17.9133 20.5728 18.8556 20.5642C19.1961 20.5535 19.1961 20.5535 19.5452 20.5449C19.8729 20.5428 19.8729 20.5428 20.207 20.5385C20.5068 20.5342 20.5068 20.5342 20.813 20.5299C21.3313 20.6306 21.3313 20.6306 21.7168 21.0182C22.0873 21.6971 22.0595 22.3417 22.0402 23.0934C22.0359 23.3226 22.0359 23.3226 22.0316 23.5539C21.9674 25.9675 21.7082 28.2055 19.8986 29.9809C19.5987 30.2293 19.2882 30.4649 18.9755 30.6962C18.9049 30.8375 18.8342 30.9789 18.7614 31.1245C18.3009 31.3472 18.3009 31.3472 17.7034 31.5657C17.5128 31.6385 17.3201 31.7134 17.123 31.7884C15.1999 32.3067 13.1889 32.2338 11.2122 32.236C10.9509 32.2381 10.6896 32.2403 10.4198 32.2446C5.39986 32.251 5.39986 32.251 3.34177 30.9103C3.20685 30.8268 3.07407 30.7411 2.93487 30.6555C1.34151 29.5868 0.621925 28.289 0.204311 26.4258C-0.0676735 24.8389 0.0072827 23.1984 0.0158491 21.5943C0.0158491 21.1724 0.0137079 20.7505 0.0137079 20.3308C0.0115663 19.4506 0.013708 18.5725 0.0179912 17.6923C0.0222744 16.5722 0.0201327 15.4543 0.0137079 14.3343C0.0115663 13.4648 0.0115663 12.5953 0.0137079 11.7258C0.0158495 11.3146 0.0137074 10.9013 0.0115658 10.4901C0.000857773 7.5839 0.00514133 4.54067 2.16174 2.31125C4.53037 0.101112 7.63784 -0.00382723 10.7282 0.0154473Z" fill="#004D3C"/>
<path d="M63.6446 0.0248236C63.8052 0.022682 63.9637 0.022682 64.1286 0.0205404C64.6554 0.0183988 65.1823 0.0205404 65.7091 0.022682C66.0753 0.022682 66.4415 0.0205404 66.8077 0.0205404C67.5766 0.0205404 68.3433 0.0205404 69.11 0.0248236C70.0951 0.0269652 71.0781 0.0248236 72.0633 0.022682C72.8192 0.0205404 73.5752 0.0205404 74.3312 0.022682C74.6953 0.022682 75.0572 0.022682 75.4213 0.0205404C75.9267 0.0183988 76.4343 0.0205404 76.9397 0.0248236C77.1646 0.022682 77.1646 0.022682 77.3959 0.0205404C78.0062 0.0291068 78.4131 0.0398149 78.9207 0.397463C79.7581 1.66958 79.4368 3.82832 79.152 5.2482C78.608 5.79217 78.4067 5.73435 77.6529 5.74505C77.4301 5.74934 77.2074 5.75362 76.9782 5.7579C76.7362 5.76005 76.4942 5.76219 76.2458 5.76433C75.9995 5.76861 75.7532 5.7729 75.4984 5.77718C74.7081 5.79003 73.92 5.80074 73.1298 5.8093C72.5944 5.81787 72.059 5.82644 71.5257 5.835C70.2129 5.85642 68.9001 5.87355 67.5873 5.89068C67.2768 6.51389 67.3453 7.06214 67.3453 7.75817C67.3453 7.89951 67.3453 8.04086 67.3453 8.18649C67.3453 8.48631 67.3453 8.78614 67.3453 9.08382C67.3474 9.54427 67.3453 10.0026 67.3431 10.4609C67.3453 10.7521 67.3453 11.0412 67.3453 11.3325C67.3453 11.5981 67.3453 11.8636 67.3453 12.1356C67.3046 12.7224 67.3046 12.7224 67.5873 12.958C67.8743 12.9794 68.1612 12.9858 68.4461 12.988C68.7202 12.9901 68.7202 12.9901 68.9986 12.9923C69.2963 12.9944 69.2963 12.9944 69.6004 12.9944C70.0159 13.0008 70.4335 13.0051 70.849 13.0115C71.5086 13.018 72.1661 13.0244 72.8257 13.0265C73.4596 13.0308 74.0935 13.0394 74.7274 13.0479C74.9244 13.0479 75.1215 13.0479 75.3249 13.0479C76.6806 13.0736 76.6806 13.0736 77.2417 13.5491C77.4537 14.0631 77.5222 14.425 77.5244 14.9797C77.5244 15.1574 77.5265 15.3352 77.5265 15.5193C77.5244 15.7035 77.5222 15.8877 77.5201 16.0762C77.5222 16.2603 77.5244 16.4467 77.5265 16.6373C77.5265 16.815 77.5244 16.9906 77.5244 17.1748C77.5244 17.3354 77.5222 17.4982 77.5222 17.6652C77.4151 18.2242 77.2374 18.387 76.7962 18.7403C76.3615 18.8174 76.3615 18.8174 75.8582 18.8131C75.6697 18.8131 75.4813 18.8131 75.2864 18.8131C75.0851 18.8089 74.8816 18.8067 74.6717 18.8024C74.464 18.8024 74.2563 18.8003 74.0421 18.8003C73.3761 18.796 72.71 18.7874 72.044 18.781C71.5942 18.7767 71.1424 18.7746 70.6926 18.7703C69.5854 18.7639 68.4803 18.7532 67.3731 18.7403C67.3025 21.2846 67.2318 23.8288 67.159 26.4501C67.9706 26.4587 68.7823 26.4651 69.6197 26.4737C70.4035 26.4844 71.1895 26.4951 71.9733 26.5058C72.5194 26.5122 73.0655 26.5186 73.6116 26.5229C74.3955 26.5315 75.1793 26.5422 75.9631 26.555C76.3315 26.5572 76.3315 26.5572 76.7063 26.5593C76.9333 26.5636 77.1603 26.5679 77.3959 26.5722C77.595 26.5743 77.7963 26.5765 78.0019 26.5786C78.6016 26.6793 78.7943 26.8227 79.152 27.3067C79.2248 27.7929 79.2248 27.7929 79.2141 28.3519C79.2119 28.5532 79.2119 28.7545 79.2098 28.9622C79.2034 29.1699 79.1991 29.3798 79.1927 29.5961C79.1884 29.9131 79.1884 29.9131 79.1841 30.2365C79.1755 30.759 79.1648 31.2816 79.152 31.8041C78.3639 32.3074 77.6036 32.2946 76.6977 32.2903C76.5392 32.2924 76.3786 32.2924 76.2137 32.2946C75.689 32.2967 75.1622 32.2967 74.6353 32.2967C74.2691 32.2967 73.9029 32.2988 73.5345 32.2988C72.7678 32.301 72.0011 32.301 71.2323 32.2988C70.2493 32.2988 69.2663 32.3031 68.2812 32.3074C67.5252 32.3095 66.7692 32.3095 66.0111 32.3095C65.6491 32.3095 65.2872 32.3117 64.9231 32.3138C64.4156 32.316 63.9101 32.3138 63.4026 32.3117C63.2527 32.3138 63.1028 32.316 62.9486 32.316C62.0641 32.3074 61.5758 32.2217 60.9483 31.59C60.8412 31.031 60.8412 31.031 60.8391 30.3457C60.8348 29.9559 60.8348 29.9559 60.8305 29.5597C60.8305 29.2727 60.8327 28.9836 60.8348 28.6967C60.8327 28.3925 60.8305 28.0906 60.8284 27.7865C60.8241 26.9641 60.8241 26.1417 60.8262 25.3193C60.8284 24.6319 60.8262 23.9444 60.8241 23.2591C60.8198 21.6401 60.8219 20.0189 60.8262 18.3998C60.8284 16.7294 60.8262 15.0568 60.8177 13.3842C60.8134 11.9514 60.8112 10.5166 60.8134 9.08168C60.8134 8.22504 60.8134 7.36625 60.8091 6.50961C60.8048 5.70436 60.807 4.89912 60.8112 4.09173C60.8134 3.79619 60.8112 3.50065 60.8091 3.20511C60.807 2.80035 60.8091 2.39772 60.8134 1.9951C60.8134 1.76809 60.8134 1.54322 60.8155 1.30979C60.9483 0.750828 60.9483 0.750828 61.4452 0.356773C62.184 0.0355316 62.8522 0.0183988 63.6446 0.0248236Z" fill="#004D3C"/>
<path d="M146.382 53.5549C147.642 54.3987 148.578 55.975 148.877 57.4441C149.047 58.6927 149.019 59.9455 149.025 61.2026C149.029 61.4767 149.034 61.7509 149.038 62.0336C149.047 64.3187 148.815 65.9291 147.224 67.6189C145.716 69.0323 144.209 69.1887 142.215 69.148C140.613 69.0516 139.133 68.3385 138.034 67.1584C136.919 65.3595 136.872 63.7126 136.882 61.6545C136.884 61.1662 136.878 60.6779 136.872 60.1875C136.861 58.0352 137.045 56.2062 138.503 54.5229C140.615 52.6405 143.84 52.3642 146.382 53.5549Z" fill="#759D29"/>
<path d="M49.5972 53.8555C50.139 54.3759 50.5245 54.9113 50.8822 55.5688C50.955 55.6866 51.0278 55.8065 51.1027 55.9286C51.9144 57.4256 51.8694 58.9804 51.8502 60.6358C51.8459 61.122 51.8502 61.6081 51.8566 62.0943C51.8609 64.0667 51.7409 65.8292 50.4774 67.4333C50.3403 67.5425 50.2054 67.6517 50.0662 67.7631C49.9313 67.8745 49.7985 67.988 49.6593 68.1036C47.8903 69.2408 46.0678 69.35 44.029 69.0609C42.5449 68.6176 41.2535 67.8937 40.4225 66.5509C39.583 64.8976 39.6794 62.9316 39.6922 61.1241C39.6901 60.8843 39.688 60.6444 39.688 60.396C39.6922 58.2522 39.8464 56.2091 41.3606 54.5708C43.5022 52.5834 47.1172 52.2043 49.5972 53.8555Z" fill="#759D29"/>
<path d="M89.0096 53.64C90.149 54.5416 90.7272 55.7902 91.3654 57.0665C91.3954 57.6555 91.4104 58.238 91.4168 58.8291C91.4189 59.0047 91.4189 59.1803 91.4211 59.3624C91.4254 59.735 91.4275 60.1076 91.4296 60.4824C91.4318 61.0478 91.4425 61.6153 91.4511 62.1828C91.4532 62.5448 91.4553 62.9089 91.4575 63.2729C91.4596 63.44 91.4639 63.607 91.4682 63.7805C91.4618 65.2089 91.0099 66.2583 90.149 67.3912C90.0333 67.5047 89.9177 67.6182 89.7999 67.7339C89.6864 67.8517 89.5707 67.9673 89.4529 68.0873C87.8039 69.3144 85.84 69.3422 83.8698 69.0595C82.3192 68.5798 80.8115 67.7446 80.0149 66.2755C79.6551 65.2025 79.5201 64.2217 79.5223 63.0973C79.5201 62.941 79.5201 62.7868 79.5201 62.6262C79.518 62.3006 79.518 61.973 79.518 61.6474C79.5201 61.1506 79.5137 60.6559 79.5094 60.1612C79.5009 58.1459 79.5137 56.4198 80.9657 54.8586C81.0878 54.7215 81.212 54.5866 81.3384 54.4452C83.2808 52.5606 86.656 52.3764 89.0096 53.64Z" fill="#759D29"/>
<path d="M61.2188 52.8665C61.418 52.8451 61.6193 52.8259 61.8249 52.8044C62.8657 53.13 63.2084 54.0187 63.7352 54.9268C63.9494 55.278 64.1635 55.6271 64.3777 55.9783C64.5918 56.336 64.806 56.6957 65.0202 57.0555C65.1272 57.2333 65.2322 57.411 65.3414 57.5952C65.5534 57.9507 65.7676 58.3084 65.9796 58.666C66.2066 59.0472 66.4379 59.4284 66.6713 59.8075C66.847 60.0966 66.847 60.0966 67.0268 60.39C67.1361 60.5635 67.2431 60.7391 67.3545 60.919C67.5901 61.3516 67.5901 61.3516 67.5901 61.7799C67.8021 61.8506 68.0141 61.9234 68.2326 61.9941C68.2347 61.7457 68.239 61.4951 68.2411 61.2381C68.254 60.3129 68.2711 59.3877 68.2883 58.4626C68.2968 58.0621 68.3011 57.6616 68.3075 57.259C68.314 56.685 68.3247 56.1089 68.3375 55.5329C68.3375 55.353 68.3397 55.1731 68.3418 54.9889C68.3739 53.736 68.3739 53.736 68.738 53.2735C69.2563 52.8708 69.6632 52.9372 70.3078 52.9608C70.5198 52.9651 70.734 52.9715 70.9524 52.9779C71.1152 52.9843 71.2779 52.9929 71.445 52.9993C71.7577 53.6247 71.687 54.1729 71.687 54.869C71.687 55.0167 71.687 55.1666 71.687 55.3187C71.6891 55.8091 71.6891 56.2995 71.687 56.79C71.687 57.1283 71.687 57.4689 71.6891 57.8094C71.6891 58.5204 71.6891 59.2335 71.687 59.9467C71.6849 60.8612 71.687 61.7756 71.687 62.6901C71.6891 63.3925 71.6891 64.095 71.687 64.7953C71.687 65.1337 71.687 65.472 71.6891 65.8083C71.6891 66.2794 71.687 66.7506 71.687 67.2217C71.687 67.4894 71.687 67.7571 71.687 68.0334C71.6592 68.6331 71.6592 68.6331 71.445 68.8472C70.8989 68.9072 70.8989 68.9072 70.2136 68.9286C69.9887 68.9393 69.766 68.95 69.5347 68.9607C68.6695 68.813 68.3054 68.4574 67.8043 67.7764C67.3288 67.0526 66.8962 66.3073 66.4657 65.5556C66.2216 65.1337 65.9753 64.7118 65.7312 64.2899C65.6112 64.0843 65.4913 63.8765 65.3671 63.6624C64.881 62.825 64.382 61.9941 63.883 61.1653C63.8016 61.0304 63.7202 60.8954 63.6367 60.7562C63.4546 60.4564 63.2747 60.1544 63.0927 59.8525C62.9021 61.8335 62.8164 63.8102 62.7586 65.7976C62.7479 66.0953 62.7393 66.3929 62.7308 66.6906C62.7072 67.4102 62.6858 68.1298 62.6644 68.8472C62.2446 68.8601 61.8249 68.8686 61.4073 68.8751C61.056 68.8815 61.056 68.8815 60.6984 68.8901C60.0945 68.8472 60.0945 68.8472 59.6661 68.4189C59.6147 67.7914 59.6147 67.7914 59.6169 66.9755C59.6169 66.8277 59.6169 66.6778 59.6169 66.5257C59.6169 66.0353 59.6212 65.5427 59.6233 65.0523C59.6254 64.7118 59.6254 64.3713 59.6254 64.0307C59.6276 63.1356 59.6319 62.2382 59.6362 61.3409C59.6404 60.4286 59.6426 59.5141 59.6447 58.5996C59.649 56.805 59.6576 55.0103 59.6661 53.2135C60.1994 52.9479 60.6234 52.9115 61.2188 52.8665Z" fill="#759D29"/>
<path d="M108.494 53.8513C109.458 54.6822 110.028 55.6481 110.422 56.8496C110.475 57.5734 110.475 57.5734 110.422 58.1345C110.208 58.3487 110.208 58.3487 109.64 58.3765C109.407 58.3765 109.175 58.3765 108.936 58.3744C108.589 58.3765 108.589 58.3765 108.235 58.3765C107.638 58.3487 107.638 58.3487 107.209 58.1345C106.995 57.7533 106.995 57.7533 106.781 57.2907C106.528 56.7446 106.355 56.4234 105.924 55.9929C104.586 55.7252 103.738 55.8002 102.498 56.4212C102.41 56.9181 102.339 57.4192 102.284 57.9204C103.47 58.8605 104.635 59.3638 106.057 59.8607C107.946 60.5224 109.259 61.0985 110.218 62.9381C110.625 64.0389 110.647 65.1761 110.272 66.2898C109.612 67.5683 108.482 68.4935 107.122 68.9475C105.031 69.3565 102.875 69.2602 100.999 68.2001C100.78 68.0802 100.78 68.0802 100.56 67.9581C99.5939 67.352 99.1784 66.7481 98.8572 65.6301C98.7779 65.0176 98.7929 64.5422 98.8572 63.9169C99.566 63.4436 99.7866 63.4414 100.611 63.4628C100.804 63.465 100.997 63.4693 101.196 63.4735C101.344 63.4778 101.489 63.4843 101.641 63.4885C101.688 63.602 101.735 63.7156 101.783 63.8333C102.264 64.9063 102.663 65.5702 103.783 66.0585C104.785 66.1848 105.738 66.294 106.631 65.7694C107.053 65.4267 107.053 65.4267 107.115 64.7992C106.955 63.9019 106.618 63.647 105.924 63.0602C105.383 62.8268 104.875 62.6362 104.318 62.4584C102.569 61.8502 100.448 61.0749 99.3283 59.5308C98.7908 58.4022 98.7394 57.28 99.0585 56.0743C99.5768 54.7272 100.68 53.8342 101.963 53.2217C103.982 52.5835 106.704 52.6927 108.494 53.8513Z" fill="#759D29"/>
<path d="M127.343 53.6447C128.523 54.5784 129.431 55.9983 129.673 57.4996C129.682 57.7116 129.69 57.9236 129.699 58.142C129.311 58.5297 128.711 58.4376 128.187 58.4761C127.831 58.504 127.831 58.504 127.469 58.5318C127.195 58.5511 127.195 58.5511 126.915 58.5704C126.343 57.7137 125.773 56.8571 125.201 56.0004C124.086 55.7156 123.27 55.7841 122.203 56.2146C121.321 57.1269 121.319 58.0285 121.319 59.2535C121.319 59.4035 121.319 59.5534 121.316 59.7076C121.316 60.0224 121.319 60.3393 121.319 60.6542C121.319 61.1382 121.319 61.6222 121.316 62.1062C121.316 62.4124 121.319 62.7208 121.319 63.0271C121.319 63.3076 121.319 63.586 121.319 63.8751C121.314 64.5712 121.314 64.5712 121.561 65.2094C122.492 66.0446 123.274 66.2159 124.486 66.1624C125.291 66.0082 125.595 65.6527 126.058 64.9952C126.309 64.5005 126.506 64.0186 126.7 63.4961C127.12 63.4854 127.54 63.4768 127.96 63.4704C128.309 63.4618 128.309 63.4618 128.666 63.4532C129.27 63.4961 129.27 63.4961 129.699 63.9244C129.649 65.3528 129.283 66.4451 128.292 67.4923C126.694 68.9507 125.356 69.1885 123.216 69.1371C121.479 68.9786 120.252 68.289 118.924 67.1946C117.714 65.5691 117.813 63.5924 117.823 61.6543C117.826 61.1703 117.819 60.6863 117.813 60.2001C117.804 58.247 117.845 56.2296 119.179 54.6748C121.259 52.6617 124.794 52.2505 127.343 53.6447Z" fill="#759D29"/>
<path d="M30.1126 53.6414C31.132 54.5623 31.8495 55.5431 32.2542 56.8538C32.2542 57.3485 32.2542 57.8432 32.2542 58.3529C31.2648 58.3529 30.2754 58.3529 29.256 58.3529C29.0547 57.9267 28.8512 57.5027 28.6499 57.0765C28.3843 56.6139 28.1873 56.3141 27.7568 55.9972C27.2 55.9115 27.2 55.9115 26.5918 55.9436C26.3905 55.9479 26.1871 55.95 25.9772 55.9543C25.7866 55.9672 25.5981 55.9822 25.4011 55.9972C25.2447 56.0079 25.0863 56.0164 24.9256 56.0271C24.4823 56.1899 24.4823 56.1899 24.311 56.7596C24.0947 57.5755 24.0433 58.3401 24.0369 59.1774C24.0347 59.3338 24.0326 59.4923 24.0305 59.6529C24.0283 59.9848 24.0262 60.3146 24.024 60.6444C24.0219 61.1499 24.0112 61.6531 24.0005 62.1586C23.9983 62.4798 23.9983 62.8032 23.9962 63.1266C23.9919 63.2743 23.9876 63.4242 23.9833 63.5784C23.9919 64.4158 24.0926 64.7499 24.6322 65.4031C25.5146 66.112 26.1142 66.1505 27.2257 66.1355C27.8125 66.0948 27.8125 66.0948 28.3993 65.6215C28.894 64.8934 29.0718 64.3473 29.256 63.4928C30.1747 63.4928 31.0935 63.4928 32.0401 63.4928C32.3699 64.1503 32.3035 64.6921 32.2542 65.4202C31.616 67.065 30.5945 68.0844 29.0418 68.8468C27.2728 69.4229 25.2083 69.2858 23.555 68.4849C22.1137 67.6582 21.195 66.8208 20.6895 65.2061C20.6017 64.585 20.5953 63.9746 20.5975 63.3471C20.5953 63.1737 20.5953 63.0002 20.5932 62.8203C20.591 62.4541 20.5932 62.0879 20.5932 61.7217C20.5953 61.167 20.5889 60.6123 20.5825 60.0576C20.5739 57.9931 20.5975 56.3163 21.9445 54.648C24.1482 52.8169 27.5084 52.1273 30.1126 53.6414Z" fill="#759D29"/>
</svg>
